<svg width="30" height="30" viewBox="0 0 30 30" fill="none" xmlns="http://www.w3.org/2000/svg">
<g clip-path="url(#clip0_690_1748)">
<path fill-rule="evenodd" clip-rule="evenodd" d="M18.7782 9.15181C17.6368 8.38918 16.2949 7.98211 14.9222 7.98211V1.0415C17.6677 1.0415 20.3515 1.85562 22.6342 3.38091C24.917 4.90619 26.6961 7.07415 27.7468 9.61059C28.7974 12.147 29.0723 14.9381 28.5367 17.6308C28.0011 20.3235 26.6791 22.7969 24.7377 24.7382C22.7964 26.6796 20.323 28.0016 17.6303 28.5372C14.9376 29.0728 12.1465 28.7979 9.6101 27.7473C7.07366 26.6966 4.90571 24.9175 3.38042 22.6347C1.85514 20.3519 1.04102 17.6681 1.04102 14.9227H7.98162C7.98162 16.2954 8.38869 17.6373 9.15133 18.7787C9.91396 19.9201 10.9979 20.8097 12.2662 21.335C13.5344 21.8603 14.9299 21.9978 16.2763 21.7299C17.6226 21.4622 18.8593 20.8011 19.83 19.8305C20.8007 18.8598 21.4617 17.6231 21.7294 16.2768C21.9973 14.9304 21.8599 13.5349 21.3345 12.2667C20.8092 10.9984 19.9196 9.91445 18.7782 9.15181Z" fill="white" stroke="#DDDDDD" stroke-width="0.694061"/>
<path fill-rule="evenodd" clip-rule="evenodd" d="M7.98162 1.04151C7.98162 1.95296 7.8021 2.85549 7.4533 3.69756C7.1045 4.53964 6.59326 5.30476 5.94877 5.94926C5.30427 6.59376 4.53915 7.105 3.69707 7.4538C2.855 7.80259 1.95247 7.98212 1.04102 7.98212L1.04102 14.9227C2.86392 14.9227 4.66898 14.5637 6.35313 13.8661C8.03728 13.1685 9.56755 12.146 10.8565 10.857C12.1455 9.56804 13.168 8.03778 13.8656 6.35362C14.5632 4.66947 14.9222 2.86441 14.9222 1.0415L7.98162 1.04151Z" fill="white" stroke="#DDDDDD" stroke-width="0.694061"/>
</g>
<defs>
<clipPath id="clip0_690_1748">
<rect width="29.8446" height="29.8446" fill="white"/>
</clipPath>
</defs>
</svg>
