<svg width="161" height="30" viewBox="0 0 161 30" fill="none" xmlns="http://www.w3.org/2000/svg">
<g clip-path="url(#clip0_690_1738)">
<path fill-rule="evenodd" clip-rule="evenodd" d="M18.7782 9.15181C17.6368 8.38918 16.2949 7.98211 14.9222 7.98211V1.0415C17.6677 1.0415 20.3515 1.85562 22.6342 3.38091C24.917 4.90619 26.6961 7.07415 27.7468 9.61059C28.7974 12.147 29.0723 14.9381 28.5367 17.6308C28.0011 20.3235 26.6791 22.7969 24.7377 24.7382C22.7964 26.6796 20.323 28.0016 17.6303 28.5372C14.9376 29.0728 12.1465 28.7979 9.6101 27.7473C7.07366 26.6966 4.90571 24.9175 3.38042 22.6347C1.85514 20.3519 1.04102 17.6681 1.04102 14.9227H7.98162C7.98162 16.2954 8.38869 17.6373 9.15133 18.7787C9.91396 19.9201 10.9979 20.8097 12.2662 21.335C13.5344 21.8603 14.9299 21.9978 16.2763 21.7299C17.6226 21.4622 18.8593 20.8011 19.83 19.8305C20.8007 18.8598 21.4617 17.6231 21.7294 16.2768C21.9973 14.9304 21.8599 13.5349 21.3345 12.2667C20.8092 10.9984 19.9196 9.91445 18.7782 9.15181Z" fill="#2DD4BF" stroke="#14B8A6" stroke-width="0.694061"/>
<path fill-rule="evenodd" clip-rule="evenodd" d="M7.98162 1.04151C7.98162 1.95296 7.8021 2.85549 7.4533 3.69756C7.1045 4.53964 6.59326 5.30476 5.94877 5.94926C5.30427 6.59376 4.53915 7.105 3.69707 7.4538C2.855 7.80259 1.95247 7.98212 1.04102 7.98212L1.04102 14.9227C2.86392 14.9227 4.66898 14.5637 6.35313 13.8661C8.03728 13.1685 9.56755 12.146 10.8565 10.857C12.1455 9.56804 13.168 8.03778 13.8656 6.35362C14.5632 4.66947 14.9222 2.86441 14.9222 1.0415L7.98162 1.04151Z" fill="#2DD4BF" stroke="#14B8A6" stroke-width="0.694061"/>
</g>
<path d="M53.8346 25.9224L48.7312 17.0734H44.5828L43.583 16.8496L44.0307 15.0142V14.5366H48.776C49.7011 14.5366 50.4423 14.3476 50.9994 13.9696C51.5565 13.5816 51.9544 13.0743 52.1932 12.4475C52.4419 11.8208 52.5662 11.1393 52.5662 10.4032C52.5662 9.58741 52.4319 8.90596 52.1633 8.35881C51.8947 7.80171 51.457 7.38388 50.8502 7.10533C50.2433 6.82678 49.4325 6.68751 48.4178 6.68751L44.8514 6.67259L44.8365 5.95632L43.5681 4.22533C44.0257 4.22533 44.538 4.22533 45.1051 4.22533C45.6721 4.22533 46.2292 4.22533 46.7764 4.22533C47.3235 4.22533 47.7961 4.22533 48.194 4.22533C50.6114 4.22533 52.422 4.72771 53.6257 5.73248C54.8294 6.7273 55.4313 8.18969 55.4313 10.1196C55.4313 10.8459 55.3517 11.5671 55.1925 12.2834C55.0334 12.9897 54.7548 13.6513 54.3569 14.268C53.959 14.8848 53.4118 15.4121 52.7154 15.8498C52.0191 16.2776 51.1337 16.576 50.0593 16.7451L50.1339 16.387C50.4821 16.3771 50.7706 16.4069 50.9994 16.4765C51.2381 16.5462 51.447 16.6755 51.6261 16.8645C51.8151 17.0535 52.0091 17.3271 52.2081 17.6852L56.9683 25.9224H53.8346ZM42.1952 25.9224V4.22533H44.9409V25.9224H42.1952ZM54.4348 25.9224L61.4632 4.22533H65.2833L72.2819 25.9224H69.3571L67.3276 19.4013L68.9243 20.5354H58.1355L59.1801 18.1031H68.1782L67.2829 19.2521L64.6267 10.6121L63.4031 6.23984H63.3135L62.1048 10.6121L57.3745 25.9224H54.4348ZM71.0167 25.9224V4.22533H74.5832L80.3879 17.7748L82.5517 22.9976H82.6561L82.2383 17.6852V4.22533H84.9243V25.9224H81.3579L75.5979 12.4624L73.464 7.2844H73.3446L73.7177 12.6863V25.9224H71.0167ZM88.8372 19.849L88.3597 17.0436L92.3738 11.6119L97.6712 4.22533H100.999L93.6422 14.1934L92.7916 15.0142L88.8372 19.849ZM86.1512 25.9224V4.22533H88.9268V25.9224H86.1512ZM98.298 25.9224L91.4785 14.268L93.6422 12.7907L101.402 25.9224H98.298ZM99.7636 25.9224L109.717 8.44834L111.164 6.58305L108.598 6.67259H100.942V4.22533H115.014L105.33 21.2218L103.688 23.6393L106.329 23.4751H114.313V25.9224H99.7636ZM115.51 25.9224V4.22533H127.97V6.62782H117.077L118.285 5.4788V14.1487L117.077 13.3429H126.911V15.7453H117.495L118.285 14.8649V24.9076L117.077 23.4751H128.612V25.9224H115.51ZM141.508 25.9224L136.404 17.0734H132.256L131.256 16.8496L131.704 15.0142V14.5366H136.449C137.374 14.5366 138.115 14.3476 138.673 13.9696C139.23 13.5816 139.628 13.0743 139.866 12.4475C140.115 11.8208 140.239 11.1393 140.239 10.4032C140.239 9.58741 140.105 8.90596 139.837 8.35881C139.568 7.80171 139.13 7.38388 138.523 7.10533C137.917 6.82678 137.106 6.68751 136.091 6.68751L132.525 6.67259L132.51 5.95632L131.241 4.22533C131.699 4.22533 132.211 4.22533 132.778 4.22533C133.345 4.22533 133.902 4.22533 134.45 4.22533C134.997 4.22533 135.469 4.22533 135.867 4.22533C138.285 4.22533 140.095 4.72771 141.299 5.73248C142.503 6.7273 143.105 8.18969 143.105 10.1196C143.105 10.8459 143.025 11.5671 142.866 12.2834C142.707 12.9897 142.428 13.6513 142.03 14.268C141.632 14.8848 141.085 15.4121 140.389 15.8498C139.692 16.2776 138.807 16.576 137.732 16.7451L137.807 16.387C138.155 16.3771 138.444 16.4069 138.673 16.4765C138.911 16.5462 139.12 16.6755 139.299 16.8645C139.488 17.0535 139.682 17.3271 139.881 17.6852L144.642 25.9224H141.508ZM129.868 25.9224V4.22533H132.614V25.9224H129.868ZM151.032 26.37C149.46 26.37 148.097 25.9273 146.943 25.0419C145.789 24.1566 144.898 22.8683 144.272 21.1771C143.645 19.4759 143.332 17.4017 143.332 14.9545C143.332 11.3532 144.023 8.59259 145.406 6.67259C146.799 4.75258 148.674 3.79258 151.032 3.79258C153.409 3.79258 155.284 4.75258 156.657 6.67259C158.04 8.59259 158.731 11.3532 158.731 14.9545C158.731 17.4017 158.418 19.4759 157.791 21.1771C157.175 22.8683 156.289 24.1566 155.135 25.0419C153.981 25.9273 152.613 26.37 151.032 26.37ZM151.032 23.7736C152.554 23.7736 153.742 23.0573 154.598 21.6247C155.463 20.1922 155.896 17.9688 155.896 14.9545C155.896 11.98 155.463 9.81125 154.598 8.44834C153.742 7.07549 152.554 6.38906 151.032 6.38906C149.519 6.38906 148.331 7.07549 147.465 8.44834C146.61 9.81125 146.182 11.98 146.182 14.9545C146.182 17.9688 146.61 20.1922 147.465 21.6247C148.331 23.0573 149.519 23.7736 151.032 23.7736Z" fill="black"/>
<defs>
<clipPath id="clip0_690_1738">
<rect width="29.8446" height="29.8446" fill="white"/>
</clipPath>
</defs>
</svg>
